HIERARCHY
ROOT hip
{
	OFFSET 0.000000 0.000000 0.000000
	CHANNELS 6 Xposition Yposition Zposition Zrotation Yrotation Xrotation 
	JOINT lhipjoint
	{
		OFFSET 0.000000 0.000000 0.000000
		CHANNELS 3 Zrotation Yrotation Xrotation
		JOINT lfemur
		{
			OFFSET 1.363060 -1.794630 0.839290
			CHANNELS 3 Zrotation Yrotation Xrotation
			JOINT ltibia
			{
				OFFSET 2.448110 -6.726130 0.000000
				CHANNELS 3 Zrotation Yrotation Xrotation
				JOINT lfoot
				{
					OFFSET 2.562200 -7.039590 0.000000
					CHANNELS 3 Zrotation Yrotation Xrotation
					JOINT ltoes
					{
						OFFSET 0.157640 -0.433110 2.322550
						CHANNELS 3 Zrotation Yrotation Xrotation
						End Site
						{
							OFFSET 0.000000 0.000000 0.000000
						}
					}
				}
			}
		}
	}
	JOINT rhipjoint
	{
		OFFSET 0.000000 0.000000 0.000000
		CHANNELS 3 Zrotation Yrotation Xrotation
		JOINT rfemur
		{
			OFFSET -1.305520 -1.794630 0.839290
			CHANNELS 3 Zrotation Yrotation Xrotation
			JOINT rtibia
			{
				OFFSET -2.542530 -6.985550 0.000000
				CHANNELS 3 Zrotation Yrotation Xrotation
				JOINT rfoot
				{
					OFFSET -2.568260 -7.056230 0.000000
					CHANNELS 3 Zrotation Yrotation Xrotation
					JOINT rtoes
					{
						OFFSET -0.164730 -0.452590 2.363150
						CHANNELS 3 Zrotation Yrotation Xrotation
						End Site
						{
							OFFSET 0.000000 0.000000 0.000000
						}
					}
				}
			}
		}
	}
	JOINT lowerback
	{
		OFFSET 0.000000 0.000000 0.000000
		CHANNELS 3 Zrotation Yrotation Xrotation
		JOINT upperback
		{
			OFFSET 0.028270 2.035590 -0.193380
			CHANNELS 3 Zrotation Yrotation Xrotation
			JOINT thorax
			{
				OFFSET 0.056720 2.048850 -0.042750
				CHANNELS 3 Zrotation Yrotation Xrotation
				JOINT lowerneck
				{
					OFFSET 0.000000 0.000000 0.000000
					CHANNELS 3 Zrotation Yrotation Xrotation
					JOINT upperneck
					{
						OFFSET -0.054170 1.746240 0.172020
						CHANNELS 3 Zrotation Yrotation Xrotation
						JOINT head
						{
							OFFSET 0.104070 1.761360 -0.123970
							CHANNELS 3 Zrotation Yrotation Xrotation
							End Site
							{
								OFFSET 0.000000 0.000000 0.000000
							}
						}
					}
				}
				JOINT lclavicle
				{
					OFFSET 0.000000 0.000000 0.000000
					CHANNELS 3 Zrotation Yrotation Xrotation
					JOINT lhumerus
					{
						OFFSET 3.362410 1.200890 -0.311210
						CHANNELS 3 Zrotation Yrotation Xrotation
						JOINT lradius
						{
							OFFSET 4.983000 -0.000000 -0.000000
							CHANNELS 3 Zrotation Yrotation Xrotation
							JOINT lwrist
							{
								OFFSET 3.483560 -0.000000 -0.000000
								CHANNELS 3 Zrotation Yrotation Xrotation
								JOINT lhand
								{
									OFFSET 0.000000 0.000000 0.000000
									CHANNELS 3 Zrotation Yrotation Xrotation
									JOINT lfingers
									{
										OFFSET 0.715260 -0.000000 -0.000000
										CHANNELS 3 Zrotation Yrotation Xrotation
										End Site
										{
											OFFSET 0.000000 0.000000 0.000000
										}
									}
								}
								JOINT lthumb
								{
									OFFSET 0.000000 0.000000 0.000000
									CHANNELS 3 Zrotation Yrotation Xrotation
									End Site
									{
										OFFSET 0.000000 0.000000 0.000000
									}
								}
							}
						}
					}
				}
				JOINT rclavicle
				{
					OFFSET 0.000000 0.000000 0.000000
					CHANNELS 3 Zrotation Yrotation Xrotation
					JOINT rhumerus
					{
						OFFSET -3.136600 1.374050 -0.404650
						CHANNELS 3 Zrotation Yrotation Xrotation
						JOINT rradius
						{
							OFFSET -5.241900 -0.000000 -0.000000
							CHANNELS 3 Zrotation Yrotation Xrotation
							JOINT rwrist
							{
								OFFSET -3.444170 -0.000000 -0.000000
								CHANNELS 3 Zrotation Yrotation Xrotation
								JOINT rhand
								{
									OFFSET 0.000000 0.000000 0.000000
									CHANNELS 3 Zrotation Yrotation Xrotation
									JOINT rfingers
									{
										OFFSET -0.622530 -0.000000 -0.000000
										CHANNELS 3 Zrotation Yrotation Xrotation
										End Site
										{
											OFFSET 0.000000 0.000000 0.000000
										}
									}
								}
								JOINT rthumb
								{
									OFFSET 0.000000 0.000000 0.000000
									CHANNELS 3 Zrotation Yrotation Xrotation
									End Site
									{
										OFFSET 0.000000 0.000000 0.000000
									}
								}
							}
						}
					}
				}
			}
		}
	}
}
MOTION
Frames: 4
Frame Time: 0.008333
-0.840456 16.074372 3.393535 -177.388398 -3.273425 158.392143 8.003236 7.215507 3.409980 3.407398 -9.506218 0.864480 3.809624 10.749987 41.678078 6.414908 -17.543892 20.922882 5.462600 -13.886500 -42.784800 -8.863277 -7.067806 1.627999 7.389818 12.725754 4.237812 -6.877823 -12.510978 49.858718 -3.218330 8.429471 6.010153 -2.454100 9.754000 -28.183700 3.436323 -1.201974 19.105073 0.917455 -1.299583 -1.046239 3.322822 -0.888208 -3.042447 -11.791905 -5.665526 -0.223332 5.796564 -7.404015 1.898288 5.042000 -3.262400 -0.395400 4.704553 -4.618164 3.217235 62.683226 -14.446619 -37.268313 25.666118 -36.946818 -6.242023 -0.085973 -2.282857 -66.797562 55.520608 2.415940 5.849600 -7.125000 0.000000 0.000000 25.610100 35.744000 -6.359000 -2.934545 5.197239 4.297656 -75.011529 17.176644 -58.268389 -23.244760 42.587215 -6.150187 -0.382338 1.296369 -85.321885 -50.107263 11.934572 -13.296600 7.125000 0.000000 0.000000 -16.276800 -13.333900 -12.614900 
-0.852155 15.870569 3.388918 -177.475175 -3.231032 158.018710 8.020540 7.262261 3.392109 3.823027 -8.747124 0.525518 4.202600 11.103474 42.945107 6.752810 -19.399915 18.477733 5.325300 -13.741000 -42.209700 -8.854996 -7.117331 1.623820 6.504707 11.536828 4.150912 -7.043961 -12.588162 50.136449 -3.462474 8.908619 3.127249 -2.662300 10.127200 -29.389700 3.445328 -1.154895 19.652737 0.912661 -1.231991 -1.045538 3.397946 -0.869568 -3.226627 -11.895664 -5.735334 -0.180293 5.838837 -7.476847 1.751002 5.100700 -3.283800 -0.413300 4.802694 -4.681855 3.118870 61.965956 -13.412988 -34.702697 25.418942 -36.146882 -5.984446 -0.062469 -2.402884 -67.122625 56.215509 2.777053 6.758500 -7.125000 0.000000 0.000000 26.512500 36.587700 -6.018400 -3.006161 5.282701 4.367173 -74.376488 17.195514 -59.234992 -22.721592 42.170324 -5.975554 -0.355783 1.357574 -84.327120 -49.843918 12.033336 -13.304000 7.125000 0.000000 0.000000 -16.125100 -13.267300 -12.510500 
-0.862212 15.699707 3.382453 -177.516170 -3.185346 157.844938 8.036380 7.305062 3.376503 4.242502 -7.998921 0.125476 4.534657 11.378675 43.893816 7.039606 -20.902625 16.471256 5.151700 -13.552600 -41.473900 -8.856297 -7.160530 1.618649 6.017212 10.773169 4.240506 -7.142935 -12.603873 50.161992 -3.481663 8.468976 0.622814 -2.913100 10.553000 -30.786700 3.462034 -1.115104 19.965962 0.911489 -1.163108 -1.057828 3.517089 -0.848771 -3.337819 -11.999678 -5.807851 -0.265413 5.870107 -7.537508 1.671986 5.148500 -3.306800 -0.359400 4.940218 -4.757568 3.051121 60.755027 -12.465886 -32.335612 25.123166 -35.303413 -5.744113 -0.078064 -2.558090 -66.360383 56.568586 3.205314 7.764600 -7.125000 0.000000 0.000000 27.227100 37.562800 -5.487300 -3.123147 5.370313 4.408957 -73.317344 17.061453 -59.611031 -22.397571 41.841368 -5.899984 -0.325624 1.460400 -83.255759 -48.998316 12.111876 -13.041100 7.125000 0.000000 0.000000 -15.642500 -13.393500 -12.061400 
-0.870729 15.575024 3.377732 -177.475418 -3.142387 157.983670 8.045043 7.331969 3.362075 4.587813 -7.414952 -0.382761 4.781373 11.577855 44.482306 7.264310 -21.868126 14.757633 5.092500 -13.487200 -41.220900 -8.856618 -7.190556 1.615844 5.762884 10.190543 4.176192 -7.172883 -12.583032 50.009142 -3.403874 7.763883 -1.309604 -3.167700 10.961800 -32.151000 3.563199 -1.095946 19.896171 0.910447 -1.095357 -1.083608 3.587173 -0.814066 -3.344453 -12.044234 -5.892352 -0.430539 5.868456 -7.607371 1.644306 5.171700 -3.338900 -0.281100 5.106866 -4.826258 3.027101 59.125623 -11.684810 -30.572032 24.708833 -34.403964 -5.504602 -0.140907 -2.738001 -64.476496 56.476279 3.764072 8.879100 -7.125000 0.000000 0.000000 27.673100 38.718100 -4.718600 -3.281666 5.451007 4.442015 -71.814105 16.855709 -59.583657 -22.130097 41.484763 -5.857547 -0.285404 1.604484 -81.965528 -47.697410 12.172858 -12.581300 7.125000 0.000000 0.000000 -14.901400 -13.659900 -11.359700 
